<?xml version="1.0" encoding="UTF-8" standalone="no"?>
<!-- Created with Inkscape (http://www.inkscape.org/) -->

<svg
   xmlns:dc="http://purl.org/dc/elements/1.1/"
   xmlns:cc="http://creativecommons.org/ns#"
   xmlns:rdf="http://www.w3.org/1999/02/22-rdf-syntax-ns#"
   xmlns:svg="http://www.w3.org/2000/svg"
   xmlns="http://www.w3.org/2000/svg"
   xmlns:sodipodi="http://sodipodi.sourceforge.net/DTD/sodipodi-0.dtd"
   xmlns:inkscape="http://www.inkscape.org/namespaces/inkscape"
   version="1.1"
   id="svg3642"
   xml:space="preserve"
   width="800"
   height="800"
   viewBox="0 0 800 800"
   sodipodi:docname="lithuania-waving-flag.svg"
   inkscape:version="0.92.4 (5da689c313, 2019-01-14)"><metadata
     id="metadata3648"><rdf:RDF><cc:Work
         rdf:about=""><dc:format>image/svg+xml</dc:format><dc:type
           rdf:resource="http://purl.org/dc/dcmitype/StillImage" /><dc:title></dc:title></cc:Work></rdf:RDF></metadata><defs
     id="defs3646"><clipPath
       clipPathUnits="userSpaceOnUse"
       id="clipPath3658"><path
         d="M 0,600 H 600 V 0 H 0 Z"
         id="path3656"
         inkscape:connector-curvature="0" /></clipPath></defs><sodipodi:namedview
     pagecolor="#ffffff"
     bordercolor="#666666"
     borderopacity="1"
     objecttolerance="10"
     gridtolerance="10"
     guidetolerance="10"
     inkscape:pageopacity="0"
     inkscape:pageshadow="2"
     inkscape:window-width="1920"
     inkscape:window-height="1018"
     id="namedview3644"
     showgrid="false"
     inkscape:zoom="0.57051253"
     inkscape:cx="461.01695"
     inkscape:cy="557.62712"
     inkscape:window-x="-8"
     inkscape:window-y="-8"
     inkscape:window-maximized="1"
     inkscape:current-layer="g3650" /><g
     id="g3650"
     inkscape:groupmode="layer"
     inkscape:label="Lithuania-flag-publicdomainvectors.org"
     transform="matrix(1.3333333,0,0,-1.3333333,0,800)"><g
       id="g3652"><g
         id="g3654"
         clip-path="url(#clipPath3658)"><path
           d="m 83.625,532.08 c 35.534,4.337 71.149,8.076 96.404,-4.812 21.011,-10.736 34.023,-29.315 52.634,-34.453 10.426,-2.865 22.858,-3.066 36.608,-2.249 15.019,0.915 30.613,2.893 46.027,3.832 14.144,0.859 26.466,0.786 35.416,-2.297 6.77,-2.331 10.732,-7.225 12.593,-12.011 1.755,-4.518 3.166,-9.288 6.99,-11.961 4.629,-3.228 12.413,-4.201 22.004,-4.24 11.63,-0.042 24.762,1.173 38.584,2.189 13.434,0.984 25.434,1.818 34.847,0.733 6.513,-0.756 10.706,-3.57 10.473,-6.579 -0.265,-3.372 -2.871,-6.431 -3.099,-9.497 -0.182,-2.517 3.437,-4.658 8.822,-5.21 7.8,-0.783 17.883,-0.18 29.517,0.542 3.564,-74.741 7.293,-150.551 10.963,-227.465 -12.516,0.448 -24.345,1.052 -34.559,0.823 -7.99,-0.182 -14.114,-0.696 -16.332,-3.237 -1.579,-1.81 0.091,-4.999 1.376,-8.059 1.227,-2.905 0.426,-6.564 -3.367,-7.992 -6.274,-2.341 -16.182,-2.352 -28.331,-2.039 -13.68,0.352 -27.729,1.362 -41.106,1.702 -11.845,0.302 -21.818,0.144 -29.149,-2.045 -5.557,-1.657 -9.142,-5.34 -11,-9.418 -1.945,-4.28 -3.775,-9.407 -8.503,-12.714 -6.042,-4.212 -16.113,-5.954 -28.446,-6.285 -30.174,-0.824 -61.599,5.28 -88.017,1.962 -21.196,-2.675 -36.834,-17.315 -55.762,-29.658 -10.775,-7.022 -24.178,-12.56 -39.589,-14.907 -16.741,-2.541 -34.792,-1.588 -53.02,0.086 -1.005,138.556 -2.031,273.599 -2.978,405.259"
           style="fill:#f2b81a;fill-opacity:1;fill-rule:nonzero;stroke:none"
           id="path3660"
           inkscape:connector-curvature="0" /><path
           d="m 85.086,333.333 c 18.028,0.301 35.961,0.595 53.168,0.715 15.802,0.108 29.692,0.05 41.511,-0.176 18.653,-0.354 34.867,-1.072 53.821,-1.048 11.579,0.015 24.749,0.175 39.338,0.385 15.557,0.222 31.341,0.481 46.399,0.664 13.335,0.159 24.15,0.244 32.069,0.129 5.184,-0.074 8.278,-0.291 10.222,-0.525 1.831,-0.22 4.492,-0.398 8.718,-0.45 6.283,-0.075 14.839,0.002 25.596,0.128 12.581,0.149 26.299,0.358 40.188,0.548 12.942,0.176 23.842,0.318 31.894,0.317 4.883,-0.002 6.91,-0.263 6.677,-0.305 -1.258,-0.236 -2.809,-0.447 -2.621,-0.479 1.711,-0.279 5.832,-0.129 12.489,-0.073 9.076,0.076 20.104,0.23 32.311,0.395 1.844,-38.042 3.699,-76.362 5.542,-114.956 -12.516,0.448 -24.345,1.052 -34.559,0.823 -7.99,-0.182 -14.114,-0.696 -16.332,-3.237 -1.579,-1.81 0.091,-4.999 1.376,-8.059 1.227,-2.905 0.426,-6.564 -3.367,-7.992 -6.274,-2.341 -16.182,-2.352 -28.331,-2.039 -13.68,0.352 -27.729,1.362 -41.106,1.702 -11.845,0.302 -21.818,0.144 -29.149,-2.045 -5.557,-1.657 -9.142,-5.34 -11,-9.418 -1.945,-4.28 -3.775,-9.407 -8.503,-12.714 -6.042,-4.212 -16.113,-5.954 -28.446,-6.285 -30.174,-0.824 -61.599,5.28 -88.017,1.962 -21.196,-2.675 -36.834,-17.315 -55.762,-29.658 -10.775,-7.022 -24.178,-12.56 -39.589,-14.907 -16.741,-2.541 -34.792,-1.588 -53.02,0.086 -0.501,69.724 -1.013,138.556 -1.517,206.512"
           style="fill:#c03747;fill-opacity:1;fill-rule:nonzero;stroke:none"
           id="path3662"
           inkscape:connector-curvature="0" /><path
           d="m 84.591,400.42 c 17.931,0.965 35.853,1.972 53.145,1.775 15.99,-0.191 30.185,-1.495 42.152,-3.936 19.126,-3.909 34.776,-10.637 53.34,-11.984 11.24,-0.812 24.117,-0.627 38.44,-0.136 15.394,0.525 31.145,1.369 46.347,1.715 13.633,0.305 24.923,0.24 33.222,-1.076 5.647,-0.898 9.056,-2.734 10.947,-4.594 1.703,-1.68 4.103,-3.383 8.077,-4.135 5.825,-1.098 14.024,-1.195 24.395,-1.052 12.282,0.171 25.827,0.748 39.726,1.195 13.139,0.421 24.426,0.743 32.952,0.245 5.411,-0.318 8.482,-1.662 7.896,-2.641 -0.873,-1.458 -3.277,-2.43 -2.867,-3.461 0.586,-1.474 5.027,-1.498 11.241,-1.589 8.668,-0.129 19.392,0.216 31.436,0.582 1.225,-25.149 2.447,-50.42 3.665,-75.813 -12.337,0.04 -23.657,0.111 -33.125,-0.089 -7.104,-0.153 -11.907,-0.06 -13.756,-1.238 -0.621,-0.394 1.059,-1.425 2.288,-2.45 0.749,-0.623 -1.103,-1.881 -5.51,-2.259 -7.539,-0.645 -18.06,-0.662 -30.768,-0.627 -13.853,0.038 -27.71,0.22 -40.575,0.169 -11.134,-0.045 -20.129,-0.208 -26.789,-1.034 -4.61,-0.57 -7.571,-1.708 -9.422,-3.052 -1.856,-1.35 -4.692,-2.899 -9.574,-3.738 -7.426,-1.272 -17.869,-1.641 -30.883,-1.753 -14.888,-0.126 -30.672,0.183 -46.377,0.326 -14.84,0.135 -28.328,0.121 -40.219,-0.567 -19.568,-1.138 -35.807,-6.118 -54.387,-9.586 -11.546,-2.148 -25.238,-3.608 -40.865,-4.23 -17.097,-0.674 -35.044,-0.386 -53.156,-0.01 -0.339,45.401 -0.676,90.413 -0.996,135.043"
           style="fill:#188761;fill-opacity:1;fill-rule:nonzero;stroke:none"
           id="path3664"
           inkscape:connector-curvature="0" /></g></g></g></svg>
